<svg width="200" height="46" viewBox="0 0 200 46" fill="none" xmlns="http://www.w3.org/2000/svg">
<path d="M66.4396 1.84204C68.5091 3.52716 71.022 8.01158 72.0271 10.8497C73.0323 13.6878 72.72 18.0077 72.72 21.0232C72.72 24.0091 72.0715 29.3749 71.0959 32.0652C70.1203 34.7555 68.5682 37.0762 66.4396 39.0274H57.3045C55.1759 37.0762 53.6239 34.7555 52.6483 32.0652C51.6727 29.3749 51.0093 24.0091 51.0093 21.0232C51.0093 18.0077 50.9441 13.1182 52.1641 10.3656C53.2189 7.9857 55.2351 3.52716 57.3045 1.84204H66.4396ZM60.2757 33.8833H63.4685C64.2076 33.026 64.8284 31.6365 65.331 29.7149C65.8632 27.7637 66.4396 23.1813 66.4396 21.0232C66.4396 18.8651 66.9422 16.6626 66.4396 14.7705C65.9371 12.8489 64.2076 8.84304 63.4685 7.9857H60.2757C59.5366 8.84304 57.8367 12.8489 57.3045 14.7705C56.8019 16.6626 57.3045 18.8651 57.3045 21.0232C57.3045 23.1813 57.8662 27.7637 58.3688 29.7149C58.9009 31.6365 59.5366 33.026 60.2757 33.8833Z" fill="#62D4FA"/>
<path d="M85.6408 16.367H90.3414C91.6422 18.0225 92.5291 19.6781 93.0021 21.3336C93.4751 22.9892 93.7116 25.0586 93.7116 27.542V39.0274H87.8137V27.0985C87.8137 24.29 87.4294 22.2649 86.6607 21.0232H81.6941V39.0274H75.7961V16.367H80.4081L81.2063 17.9634C81.8567 17.3721 82.4627 16.9582 83.0244 16.7217C83.6157 16.4852 84.4878 16.367 85.6408 16.367Z" fill="#62D4FA"/>
<path d="M103.216 7.9857V39.0274H97.3625V7.9857H103.216Z" fill="#62D4FA"/>
<path d="M106.887 26.5664V16.367H112.785V26.6107C112.785 29.1827 113.302 31.3261 114.337 33.0408H116.953C117.929 31.3557 118.416 29.2123 118.416 26.6107V16.367H124.314V26.2559C124.314 28.4732 124.019 30.4244 123.427 32.1095C122.866 33.7946 121.934 35.7015 120.634 37.8301L117.663 42.6637C117.13 43.5802 116.569 44.2601 115.977 44.7036C115.386 45.147 114.618 45.4722 113.672 45.6792H106.665V41.0229H111.454C112.075 40.8455 112.592 40.5351 113.006 40.0917C113.42 39.6482 113.849 39.0126 114.292 38.1848L114.558 37.697H111.499C110.08 36.544 108.956 34.992 108.128 33.0408C107.301 31.06 106.887 28.9019 106.887 26.5664Z" fill="#62D4FA"/>
<path d="M133.922 1.84204H140.308V7.15423H136.317C135.312 7.77507 134.809 14.5045 134.809 16.367H139.421V21.0232H134.809V39.0274H128.911V21.0232H126.472V16.367H128.911C128.911 12.5237 130.581 3.58629 133.922 1.84204Z" fill="#62D4FA"/>
<path d="M151.529 28.7836H146.784C146.163 29.5523 145.853 30.5131 145.853 31.6661C145.853 32.819 146.178 33.7207 146.828 34.3711H151.529V28.7836ZM141.995 16.367H152.992C154.766 17.4312 155.934 18.6581 156.496 20.0476C157.057 21.4075 157.338 23.27 157.338 25.6351V32.2869C157.338 34.7407 157.397 36.9875 157.515 39.0274H152.46L151.662 37.431C150.509 38.4952 148.883 39.0274 146.784 39.0274H143.99C141.477 37.3718 140.221 34.992 140.221 31.8878C140.221 28.7541 141.507 26.2855 144.079 24.4821H148.247C149.4 24.4821 150.479 24.8369 151.484 25.5464V23.3292C151.484 22.1762 150.982 21.4075 149.977 21.0232H141.995V16.367Z" fill="#62D4FA"/>
<path d="M170.997 16.367H175.697C176.998 18.0225 177.885 19.6781 178.358 21.3336C178.831 22.9892 179.068 25.0586 179.068 27.542V39.0274H173.17V27.0985C173.17 24.29 172.785 22.2649 172.017 21.0232H167.05V39.0274H161.152V16.367H165.764L166.562 17.9634C167.213 17.3721 167.819 16.9582 168.38 16.7217C168.972 16.4852 169.844 16.367 170.997 16.367Z" fill="#62D4FA"/>
<path d="M192.406 16.2449V16.5221C197.469 18.1111 200 21.5664 200 26.8878C200 29.5855 199.279 32.006 197.838 34.1493C196.434 36.2927 194.863 37.9187 193.127 39.0273H180.488V32.5973H190.022C190.466 32.1908 190.965 31.3778 191.519 30.1583C192.073 28.9388 192.351 27.7008 192.351 26.4444C192.351 24.1162 191.519 22.3979 189.856 21.2892H185.366V15.2472L192.073 7.48676L191.796 6.87701H180.71V0.22522H194.069C197.21 1.55558 198.781 3.66198 198.781 6.54442C198.781 8.76168 197.764 10.8866 195.732 12.9191L192.406 16.2449Z" fill="url(#paint0_linear_87_117)"/>
<path fill-rule="evenodd" clip-rule="evenodd" d="M33.0803 13.5458L43.0549 3.57119L39.4837 0L29.5091 9.9746L33.0803 13.5458ZM15.1513 29.2584L19.9492 32.6942V13.5064L15.1513 17.0439V29.2584ZM19.9492 7.23169L11.3852 13.5458H1.64139C0.734876 13.5458 0 14.2807 0 15.1872V30.7173C0 31.6238 0.734876 32.3587 1.64139 32.3587H10.8061L19.9492 38.906L24.9996 42.5226V36.3108V9.78279V3.50806L19.9492 7.23169ZM5.05043 18.5962H10.1009V27.3082H5.05043V18.5962ZM44.9488 24.1517H33.0803V19.1013H44.9488V24.1517ZM29.4188 32.4849L39.3934 42.4595L42.9646 38.8883L32.99 28.9137L29.4188 32.4849Z" fill="#62D4FA"/>
<defs>
<linearGradient id="paint0_linear_87_117" x1="190.244" y1="0.22522" x2="190.244" y2="39.0273" gradientUnits="userSpaceOnUse">
<stop stop-color="#62D4FA"/>
<stop offset="1" stop-color="#510CF5"/>
</linearGradient>
</defs>
</svg>
